<svg xmlns="http://www.w3.org/2000/svg">
	<defs>
		<style>
			:root svg:not(:target) {
				display: none;
			}
		</style>
	</defs>
    <svg id="hand-grab" viewBox="0 0 24 24">
        <path stroke="none" d="M0 0h24v24H0z" fill="none"></path>
        <path d="M8 11v-3.5a1.5 1.5 0 0 1 3 0v2.5"></path>
        <path d="M11 9.5v-3a1.5 1.5 0 0 1 3 0v3.5"></path>
        <path d="M14 7.5a1.5 1.5 0 0 1 3 0v2.5"></path>
        <path d="M17 9.5a1.5 1.5 0 0 1 3 0v4.5a6 6 0 0 1 -6 6h-2h.208a6 6 0 0 1 -5.012 -2.7l-.196 -.3c-.312 -.479 -1.407 -2.388 -3.286 -5.728a1.5 1.5 0 0 1 .536 -2.022a1.867 1.867 0 0 1 2.28 .28l1.47 1.47"></path>
    </svg>
	<svg id="logo" viewBox="0 0 24 24">
        <path stroke="none" d="M0 0h24v24H0z" fill="none"/>
        <path d="M7 10h14l-4 -4" />
        <path d="M17 14h-14l4 4" />
    </svg>
    <svg id="photo" viewBox="0 0 24 24">
        <path stroke="none" d="M0 0h24v24H0z" fill="none"/>
        <path d="M15 8l.01 0" />
        <path d="M4 4m0 3a3 3 0 0 1 3 -3h10a3 3 0 0 1 3 3v10a3 3 0 0 1 -3 3h-10a3 3 0 0 1 -3 -3z" />
        <path d="M4 15l4 -4a3 5 0 0 1 3 0l5 5" />
        <path d="M14 14l1 -1a3 5 0 0 1 3 0l2 2" />
    </svg>
    <svg id="photo-up" viewBox="0 0 24 24">
        <path stroke="none" d="M0 0h24v24H0z" fill="none"></path>
        <path d="M15 8h.01"></path>
        <path d="M12.5 21h-6.5a3 3 0 0 1 -3 -3v-12a3 3 0 0 1 3 -3h12a3 3 0 0 1 3 3v6.5"></path>
        <path d="M3 16l5 -5c.928 -.893 2.072 -.893 3 0l3.5 3.5"></path>
        <path d="M14 14l1 -1c.679 -.653 1.473 -.829 2.214 -.526"></path>
        <path d="M19 22v-6"></path>
        <path d="M22 19l-3 -3l-3 3"></path>
    </svg>
    <svg id="plus" viewBox="0 0 24 24">
        <path stroke="none" d="M0 0h24v24H0z" fill="none"/>
        <path d="M12 5l0 14" />
        <path d="M5 12l14 0" />
    </svg>
    <svg id="user" viewBox="0 0 24 24">
        <path stroke="none" d="M0 0h24v24H0z" fill="none"/>
        <path d="M12 7m-4 0a4 4 0 1 0 8 0a4 4 0 1 0 -8 0" />
        <path d="M6 21v-2a4 4 0 0 1 4 -4h4a4 4 0 0 1 4 4v2" />
    </svg>
    <svg id="x" viewBox="0 0 24 24">
        <path stroke="none" d="M0 0h24v24H0z" fill="none"></path>
        <path d="M18 6l-12 12"></path>
        <path d="M6 6l12 12"></path>
    </svg>
    <svg id="mail" viewBox="0 0 24 24">
        <path stroke="none" d="M0 0h24v24H0z" fill="none"></path>
        <path d="M3 7a2 2 0 0 1 2 -2h14a2 2 0 0 1 2 2v10a2 2 0 0 1 -2 2h-14a2 2 0 0 1 -2 -2v-10z"></path>
        <path d="M3 7l9 6l9 -6"></path>
    </svg>
    <svg id="mail-filled" viewBox="0 0 24 24">
        <path stroke="none" d="M0 0h24v24H0z" fill="none"></path>
        <path d="M22 7.535v9.465a3 3 0 0 1 -2.824 2.995l-.176 .005h-14a3 3 0 0 1 -2.995 -2.824l-.005 -.176v-9.465l9.445 6.297l.116 .066a1 1 0 0 0 .878 0l.116 -.066l9.445 -6.297z" stroke-width="0" fill="currentColor"></path>
        <path d="M19 4c1.08 0 2.027 .57 2.555 1.427l-9.555 6.37l-9.555 -6.37a2.999 2.999 0 0 1 2.354 -1.42l.201 -.007h14z" stroke-width="0" fill="currentColor"></path>
    </svg>
</svg>
