<svg xmlns="http://www.w3.org/2000/svg">
	<defs>
		<style>
			:root svg:not(:target) {
				display: none;
			}
		</style>
	</defs>
	<svg id="logo" viewBox="0 0 24 24">
        <path stroke="none" d="M0 0h24v24H0z" fill="none"/>
        <path d="M7 10h14l-4 -4" />
        <path d="M17 14h-14l4 4" />
    </svg>
    <svg id="photo" viewBox="0 0 24 24">
        <path stroke="none" d="M0 0h24v24H0z" fill="none"/>
        <path d="M15 8l.01 0" />
        <path d="M4 4m0 3a3 3 0 0 1 3 -3h10a3 3 0 0 1 3 3v10a3 3 0 0 1 -3 3h-10a3 3 0 0 1 -3 -3z" />
        <path d="M4 15l4 -4a3 5 0 0 1 3 0l5 5" />
        <path d="M14 14l1 -1a3 5 0 0 1 3 0l2 2" />
    </svg>
    <svg id="plus" viewBox="0 0 24 24">
        <path stroke="none" d="M0 0h24v24H0z" fill="none"/>
        <path d="M12 5l0 14" />
        <path d="M5 12l14 0" />
    </svg>
    <svg id="user" viewBox="0 0 24 24">
        <path stroke="none" d="M0 0h24v24H0z" fill="none"/>
        <path d="M12 7m-4 0a4 4 0 1 0 8 0a4 4 0 1 0 -8 0" />
        <path d="M6 21v-2a4 4 0 0 1 4 -4h4a4 4 0 0 1 4 4v2" />
    </svg>
</svg>
