<svg xmlns="http://www.w3.org/2000/svg">
	<defs>
		<style>
			:root svg:not(:target) {
				display: none;
			}
		</style>
	</defs>
    <svg id="hand-grab" viewBox="0 0 24 24">
        <path stroke="none" d="M0 0h24v24H0z" fill="none"></path>
        <path d="M8 11v-3.5a1.5 1.5 0 0 1 3 0v2.5"></path>
        <path d="M11 9.5v-3a1.5 1.5 0 0 1 3 0v3.5"></path>
        <path d="M14 7.5a1.5 1.5 0 0 1 3 0v2.5"></path>
        <path d="M17 9.5a1.5 1.5 0 0 1 3 0v4.5a6 6 0 0 1 -6 6h-2h.208a6 6 0 0 1 -5.012 -2.7l-.196 -.3c-.312 -.479 -1.407 -2.388 -3.286 -5.728a1.5 1.5 0 0 1 .536 -2.022a1.867 1.867 0 0 1 2.28 .28l1.47 1.47"></path>
    </svg>
	<svg id="logo" viewBox="0 0 24 24">
        <path stroke="none" d="M0 0h24v24H0z" fill="none"/>
        <path d="M7 10h14l-4 -4" />
        <path d="M17 14h-14l4 4" />
    </svg>
    <svg id="photo" viewBox="0 0 24 24">
        <path stroke="none" d="M0 0h24v24H0z" fill="none"/>
        <path d="M15 8l.01 0" />
        <path d="M4 4m0 3a3 3 0 0 1 3 -3h10a3 3 0 0 1 3 3v10a3 3 0 0 1 -3 3h-10a3 3 0 0 1 -3 -3z" />
        <path d="M4 15l4 -4a3 5 0 0 1 3 0l5 5" />
        <path d="M14 14l1 -1a3 5 0 0 1 3 0l2 2" />
    </svg>
    <svg id="photo-up" viewBox="0 0 24 24">
        <path stroke="none" d="M0 0h24v24H0z" fill="none"></path>
        <path d="M15 8h.01"></path>
        <path d="M12.5 21h-6.5a3 3 0 0 1 -3 -3v-12a3 3 0 0 1 3 -3h12a3 3 0 0 1 3 3v6.5"></path>
        <path d="M3 16l5 -5c.928 -.893 2.072 -.893 3 0l3.5 3.5"></path>
        <path d="M14 14l1 -1c.679 -.653 1.473 -.829 2.214 -.526"></path>
        <path d="M19 22v-6"></path>
        <path d="M22 19l-3 -3l-3 3"></path>
    </svg>
    <svg id="plus" viewBox="0 0 24 24">
        <path stroke="none" d="M0 0h24v24H0z" fill="none"/>
        <path d="M12 5l0 14" />
        <path d="M5 12l14 0" />
    </svg>
    <svg id="user" viewBox="0 0 24 24">
        <path stroke="none" d="M0 0h24v24H0z" fill="none"/>
        <path d="M12 7m-4 0a4 4 0 1 0 8 0a4 4 0 1 0 -8 0" />
        <path d="M6 21v-2a4 4 0 0 1 4 -4h4a4 4 0 0 1 4 4v2" />
    </svg>
    <svg id="x" viewBox="0 0 24 24">
        <path stroke="none" d="M0 0h24v24H0z" fill="none"></path>
        <path d="M18 6l-12 12"></path>
        <path d="M6 6l12 12"></path>
    </svg>
    <svg
       width="48.0px"
       height="48.0px"
       viewBox="0 0 48.0 48.0"
       version="1.1"
       id="SVGRoot"
       sodipodi:docname="message.svg"
       inkscape:version="1.2.2 (b0a8486541, 2022-12-01)"
       xmlns:inkscape="http://www.inkscape.org/namespaces/inkscape"
       xmlns:sodipodi="http://sodipodi.sourceforge.net/DTD/sodipodi-0.dtd"
       xmlns="http://www.w3.org/2000/svg"
       xmlns:svg="http://www.w3.org/2000/svg">
      <sodipodi:namedview
         id="namedview261"
         pagecolor="#ffffff"
         bordercolor="#666666"
         borderopacity="1.0"
         inkscape:showpageshadow="2"
         inkscape:pageopacity="0.0"
         inkscape:pagecheckerboard="0"
         inkscape:deskcolor="#d1d1d1"
         inkscape:document-units="px"
         showgrid="true"
         inkscape:zoom="13.227826"
         inkscape:cx="26.421575"
         inkscape:cy="28.198133"
         inkscape:window-width="1918"
         inkscape:window-height="1059"
         inkscape:window-x="0"
         inkscape:window-y="0"
         inkscape:window-maximized="1"
         inkscape:current-layer="layer1">
        <inkscape:grid
           type="xygrid"
           id="grid384" />
      </sodipodi:namedview>
      <defs
         id="defs256" />
      <g
         inkscape:label="Layer 1"
         inkscape:groupmode="layer"
         id="layer1">
        <rect
           style="fill:none;stroke:#000000;stroke-width:1;stroke-dasharray:none"
           id="rect621"
           width="37.689156"
           height="21.960514"
           x="5.1554222"
           y="13.019743" />
        <path
           style="fill:none;stroke:#000000;stroke-width:1px;stroke-linecap:butt;stroke-linejoin:miter;stroke-opacity:1"
           d="M 5.3581641,13.067581 23.81597,27.836846 43.004365,13.19498"
           id="path1436" />
        <path
           style="fill:none;stroke:#000000;stroke-width:1px;stroke-linecap:butt;stroke-linejoin:miter;stroke-opacity:1"
           d="M 5.1416128,35.118618 19.95886,24.761661"
           id="path1438" />
        <path
           style="fill:none;stroke:#000000;stroke-width:1px;stroke-linecap:butt;stroke-linejoin:miter;stroke-opacity:1"
           d="M 42.536628,34.658952 28.92895,24.301999"
           id="path1440" />
      </g>
    </svg>
</svg>
